<svg xmlns="http://www.w3.org/2000/svg" width="163" height="162" fill="none" viewBox="0 0 163 162"><path fill="#fff" d="M78.464 161.962L76.933 161.903L73.8913 161.659L72.373 161.513L69.3645 161.103L67.8641 160.877L64.8937 160.298L63.4137 159.99L60.4867 159.254L59.0321 158.867L56.1585 157.972L54.7294 157.504L51.9145 156.457L50.5134 155.914L47.7647 154.714L46.3993 154.098L43.7193 152.75L42.3896 152.06L39.7886 150.57L38.4996 149.808L35.9827 148.178L34.737 147.345L32.3119 145.577L31.1095 144.675L28.7811 142.774L27.6322 141.806L25.4083 139.776L24.3078 138.744L22.1959 136.587L21.1515 135.491L19.1568 133.209L16.2986 129.65L15.2159 128.218L13.2136 125.307L12.2405 123.842L10.4573 120.861L9.59369 119.358L8.02701 116.294L7.27042 114.75L5.91263 111.591L5.26048 109.999L4.10649 106.733L3.55624 105.087L2.60604 101.702L2.15514 99.9951L1.39855 96.4821L0.481468 91.0561L0.440708 90.7708L0.369379 90.1237L0.333715 89.7874L0.270029 89.0487L0.242007 88.6666L0.188509 87.8488L0.163037 87.4285L0.122277 86.5445L0.0815164 85.6453L0.0305682 83.7092L0.0101881 82.7284L0 80.7058V79.697L0.0305682 77.6998L0.0509482 76.7139L0.11973 74.8517L0.140107 74.4008L0.185963 73.5398L0.211439 73.1195L0.270029 72.3298L0.298051 71.9451L0.36683 71.242L0.478918 70.2943L0.654693 69.0079L1.09031 66.4706L1.32212 65.2071L1.86219 62.7208L2.1475 61.4853L2.7971 59.0524L3.13336 57.8424L3.88486 55.4707L4.27462 54.2913L5.13056 51.9807L5.56873 50.8344L6.52657 48.5926L7.01822 47.4819L8.07287 45.3115L9.76947 42.145L9.95798 41.8113L10.307 41.2025L10.4726 40.9095L10.7528 40.4229L10.8802 40.2013L11.0585 39.8905L11.0941 39.8268L11.1451 39.7402L11.1778 39.6824C11.1781 39.6819 11.1784 39.6814 11.1788 39.6811C11.18 39.6798 11.1818 39.6792 11.1835 39.6793L11.2444 39.6842L11.2827 39.6893L11.41 39.7097L11.5527 39.7326L11.9959 39.8116L12.2379 39.8574L12.8188 39.9695L13.1194 40.0281L13.7588 40.1555L14.0798 40.2217L14.7013 40.3491L15.0045 40.4128L15.5318 40.5248L15.7738 40.5783L16.1279 40.6624L16.1992 40.6802L16.3011 40.7057L16.3724 40.7303C16.3741 40.7309 16.3754 40.7321 16.3762 40.7336C16.3771 40.7353 16.3772 40.7373 16.3765 40.739L16.3393 40.8356L16.3139 40.8993L16.2196 41.1082L16.1636 41.2254L16.0184 41.5311L15.9394 41.6941L15.7458 42.0864L15.6464 42.2902L15.4146 42.7539L15.2949 42.9933L15.03 43.5181L14.1434 45.2529L13.5805 46.3509L12.5436 48.5162L12.0418 49.5963L11.1273 51.7438L10.684 52.8163L9.8841 54.9663L9.49944 56.0439L8.80653 58.2169L8.47536 59.3072L7.88436 61.5209L7.60159 62.6367L7.10993 64.9141L6.87302 66.063L6.47052 68.422L5.95849 72.0776L5.93046 72.3094L5.88206 72.8469L5.85659 73.1246L5.81328 73.7487L5.7929 74.0697L5.75469 74.7677L5.73685 75.1243L5.70883 75.8809L5.67826 76.6502L5.64515 78.3163L5.62986 79.162L5.62222 80.8968V81.7655L5.6426 83.4672L5.65534 84.3028L5.70374 85.8669L5.71647 86.2439L5.74959 86.9521L5.76488 87.2986L5.80564 87.938L5.82602 88.2488L5.87187 88.8041L5.95084 89.5276L6.16483 91.2089L6.74055 94.5028L7.05389 96.1382L7.82067 99.3429L8.22571 100.933L9.18355 104.04L9.6854 105.584L10.8343 108.595L11.4304 110.088L12.7653 113.002L13.4582 114.444L14.979 117.257L15.7636 118.647L17.473 121.353L20.2471 125.291L21.1311 126.463L22.9704 128.72L23.9002 129.833L25.8235 131.968L26.7966 133.02L28.7989 135.028L29.8103 136.013L31.8813 137.886L32.9258 138.803L35.0631 140.533L36.1381 141.381L38.3264 142.96L39.4294 143.732L41.6661 145.156L45.0669 147.113L46.2003 147.718C46.7967 148.037 47.5181 147.608 47.5227 146.932L47.5252 146.557L47.5813 145.742L47.6169 145.335L47.7188 144.563L47.7723 144.196L47.8972 143.615L47.9303 143.49L47.9686 143.375C47.9855 143.325 48.0071 143.276 48.0331 143.229L48.0879 143.131C48.0898 143.128 48.0921 143.125 48.0949 143.122C48.1036 143.113 48.1157 143.109 48.1279 143.11L48.3302 143.126L48.4652 143.141L48.883 143.22L49.1123 143.266L49.6702 143.396L50.6051 143.633L50.7707 143.679L51.1681 143.778L51.377 143.832L51.8533 143.946L52.345 144.063L53.4863 144.326L54.0722 144.456L55.2949 144.721L57.0654 145.087L57.6259 145.2L58.6525 145.406L59.1441 145.508L59.9644 145.678L60.1529 145.717L60.4739 145.785L60.6242 145.819L60.8637 145.87L60.9707 145.895L61.1159 145.928L61.2102 145.955C61.2118 145.956 61.2133 145.957 61.2145 145.958C61.2166 145.96 61.2176 145.963 61.2173 145.966L61.2101 146.04L61.2025 146.091L61.1694 146.254L61.149 146.348L61.0955 146.59L61.0675 146.718L60.9936 147.026L60.9172 147.35L60.7159 148.155L60.3644 149.52L60.2752 149.854L60.1249 150.44L60.0561 150.717L59.9389 151.201L59.8855 151.433L59.7988 151.823L59.7606 152.009L59.7071 152.315L59.6817 152.457L59.6562 152.689L59.6485 152.794V152.85C59.6485 152.921 59.6618 152.99 59.6875 153.055L59.7329 153.171C59.746 153.204 59.769 153.232 59.7989 153.251C59.8073 153.257 59.8162 153.262 59.8255 153.266L60.0154 153.346L60.13 153.392L60.4357 153.494L60.5987 153.548L60.9961 153.665L61.2025 153.723L61.6789 153.853L62.1705 153.983L63.3449 154.266L63.9537 154.409L65.2962 154.704L66.6617 155L69.5046 155.542L70.195 155.667L71.4891 155.881L73.2086 156.128L73.7227 156.191C74.1455 156.243 74.4969 155.869 74.4187 155.451L74.4085 155.392L74.3601 155.191L74.3295 155.076L74.2505 154.77L74.2072 154.605L74.1002 154.212L74.0416 154.006L73.9117 153.537L73.7741 153.056L73.4481 151.932L72.9131 150.124L72.5234 148.828C72.0363 147.208 73.1983 145.561 74.8874 145.477L75.6593 145.436L77.096 145.345L77.8017 145.296L79.1849 145.177L79.8778 145.113L81.3095 144.955L83.6226 144.665C84.3308 144.57 84.96 145.121 84.96 145.836V146.621V146.957L85.0084 147.795L85.039 148.236L85.1383 149.219L85.2504 150.226L85.5689 152.345L85.6529 152.857L85.8312 153.812L85.9204 154.274L86.0987 155.063L86.142 155.247L86.2286 155.57L86.2719 155.723L86.3535 155.978L86.3917 156.095L86.4372 156.201C86.4578 156.249 86.4819 156.296 86.5095 156.34L86.5686 156.435C86.5712 156.439 86.5743 156.443 86.5779 156.447C86.5877 156.457 86.6003 156.463 86.6139 156.465L86.7356 156.485L86.8222 156.492L87.0744 156.495L88.0679 156.419C88.8287 156.324 89.3871 155.657 89.3471 154.892L89.2092 152.248L89.1913 151.91L89.1633 151.158L89.148 150.771L89.1276 149.933L89.1174 149.502L89.1022 148.588L89.0971 148.122L89.0894 147.146L89.0869 146.155L89.0971 144.043L89.1047 142.973L89.1429 140.78L89.1633 139.684L89.2244 137.516L89.2576 136.444L89.3391 134.403L89.362 133.907L89.4079 132.954L89.4333 132.488L89.4843 131.604L89.5123 131.171L89.5684 130.368L89.6575 129.268L89.7263 128.521L89.8868 126.906L89.9708 126.084L90.1543 124.387L90.246 123.539L90.4421 121.855L90.5389 121.022L90.7325 119.445L90.8293 118.681L91.0102 117.305L91.0535 116.979L91.1376 116.38L91.1783 116.09L91.2548 115.573L91.293 115.328L91.3592 114.905L91.3923 114.707L91.4509 114.393L91.4789 114.248L91.5248 114.052L91.5781 113.909C91.5799 113.904 91.5827 113.9 91.5864 113.896C91.5911 113.891 91.5969 113.888 91.6033 113.886L91.6853 113.866L91.7413 113.856L91.912 113.843L92.1031 113.833L92.6788 113.838L92.9921 113.846L93.764 113.884L95.053 113.975L95.3842 114.003L96.1611 114.057L96.5687 114.085L97.4782 114.133L97.9495 114.156L98.9735 114.2L99.4983 114.223L100.617 114.261L101.753 114.296L104.221 114.355L105.475 114.383L108.055 114.416L109.344 114.431L111.876 114.439H112.498L113.705 114.437L114.302 114.434L115.44 114.424L116.001 114.416L117.053 114.398L117.567 114.388L118.51 114.363L118.968 114.35L119.786 114.317L120.843 114.258L121.452 114.217L122.571 114.149L123.103 114.118L123.997 114.075L124.203 114.065L124.555 114.052L124.718 114.047L124.98 114.042L125.098 114.039L125.258 114.042L125.356 114.053C125.364 114.054 125.37 114.058 125.375 114.063C125.377 114.066 125.378 114.069 125.379 114.072L125.411 114.169L125.431 114.233L125.477 114.434L125.503 114.546L125.561 114.834L125.592 114.987L125.661 115.354L125.729 115.738L125.895 116.701L125.982 117.206L126.165 118.355L126.259 118.943L126.45 120.196L126.547 120.831L126.736 122.115L126.827 122.754L126.998 123.99L127.22 125.701L127.37 126.934L127.632 129.306L127.757 130.47L127.961 132.658L128.007 133.191L128.088 134.212L128.129 134.714L128.193 135.667L128.223 136.136L128.272 137.017L128.323 138.248L128.333 138.553L128.363 139.111L128.381 139.379L128.422 139.822L128.445 140.023L128.486 140.274C128.489 140.292 128.494 140.309 128.501 140.326L128.556 140.461C128.56 140.471 128.569 140.477 128.579 140.477C128.583 140.477 128.587 140.476 128.591 140.474L128.692 140.418L128.756 140.38L128.932 140.247L129.028 140.173L129.268 139.98L129.393 139.873L129.686 139.621L129.989 139.356L130.73 138.681L131.115 138.327L131.973 137.516L132.847 136.683L134.691 134.859L135.14 134.411L135.983 133.542L137.109 132.348L138.403 130.936L140.805 128.042L141.977 126.585L144.132 123.605L145.179 122.102L147.087 119.032L148.009 117.486L149.668 114.327L150.465 112.737L151.876 109.492L152.549 107.859L153.708 104.53L154.258 102.853L155.168 99.4397L156.25 94.2276L156.467 92.9386L156.793 90.4829L156.938 89.2576L157.127 86.7993L157.165 86.1777L157.218 84.9014L157.241 84.2569L157.264 82.9195L157.272 82.2393L157.267 80.8204L157.226 78.5736L157.195 77.4807L157.106 75.4504L157.055 74.4569L156.92 72.5921L156.844 71.6776L156.653 69.9377L156.548 69.0767L156.294 67.4183L156.159 66.5929L155.835 64.9727L155.664 64.1626L155.265 62.5348L155.053 61.7171L154.569 60.0409L153.744 57.4297L153.285 56.0516L152.284 53.3767L151.769 52.0521L150.656 49.4817L150.086 48.213L148.863 45.7497L148.236 44.532L146.901 42.1807L146.219 41.0165L144.774 38.7722L144.038 37.6641L142.481 35.5293L141.692 34.4772L140.026 32.4545L137.407 29.5453L136.604 28.7047L134.961 27.0896L134.131 26.2922L132.437 24.7638L131.583 24.0097L129.836 22.5653L128.954 21.852L127.156 20.4942L126.249 19.8243L124.4 18.5505L123.467 17.9239L121.564 16.7342L120.606 16.1508L118.65 15.0452L115.657 13.4837L115.086 13.2009L114.021 12.6889L113.499 12.4392L112.511 11.9858L111.535 11.5425L109.688 10.7834L108.758 10.4165L106.825 9.73381L106.323 9.56313L105.263 9.22177L103.556 8.6919L102.634 8.41423L100.754 7.91238L99.8091 7.67037L97.8883 7.2475L96.9228 7.0437L94.9689 6.6947L93.9882 6.52912L92.0062 6.25399L91.0128 6.12662L89.0054 5.92792L88.0017 5.83876L85.979 5.71648L84.9677 5.66298L82.9348 5.61713L81.9184 5.60184L79.8804 5.62732L78.864 5.65024L76.826 5.75214L75.8096 5.81328L73.7793 5.9916L72.7679 6.08841L70.7503 6.3406L69.7441 6.47562L67.7469 6.79914L66.7508 6.97237L64.7791 7.37232L63.7958 7.58121L61.8521 8.05759L60.8866 8.30214L58.9786 8.85239L56.1662 9.75673L54.6555 10.2815L51.7616 11.4151L50.3351 11.9959L47.594 13.2595L46.2413 13.9065L43.6327 15.3127L42.3437 16.0337L39.8447 17.5978L38.6066 18.4002L36.1942 20.1325L34.9969 21.0241L32.6507 22.9449L31.4839 23.9282L29.181 26.0502L25.7522 29.4715L24.1581 31.1427C23.0078 32.3487 21.3571 32.9431 19.702 32.7475L19.2103 32.6914L18.4155 32.5997L18.0487 32.5564L17.4857 32.4749L17.231 32.4341L16.882 32.3373L16.8541 32.3279C16.7732 32.3005 16.6985 32.2575 16.6342 32.2015L16.5914 32.1642C16.5797 32.154 16.5692 32.1424 16.5602 32.1296C16.5344 32.0927 16.5224 32.0478 16.5263 32.0029L16.5346 31.9079C16.5369 31.8817 16.5414 31.8559 16.5482 31.8305L16.5498 31.8245C16.5623 31.7777 16.5812 31.7329 16.6059 31.6912L16.7444 31.4585L16.8488 31.2954L17.1622 30.8827L17.7685 30.1007L17.8907 29.9402L18.1811 29.5835L18.3315 29.3976L18.6703 28.9976L19.0193 28.5849L19.8446 27.6577L20.2752 27.1787L21.2177 26.1623L21.6992 25.6477L22.7054 24.5956L23.2124 24.0709L24.2313 23.0391L24.7383 22.5322L25.7165 21.5744L26.198 21.1107L27.0845 20.2803L28.2512 19.2434L29.5988 18.0971L32.3271 15.9751L33.6977 14.9408L36.4795 13.0353L37.8806 12.108L40.7312 10.4089L42.1654 9.58351L45.0975 8.08815L46.575 7.36468L49.6014 6.06293L51.1273 5.43626L54.2632 4.32302L55.8452 3.79061L59.1034 2.86079L64.1397 1.66094L64.5881 1.56923L65.4262 1.39855L65.8363 1.31448L66.6056 1.16418L67.3597 1.01643L68.7149 0.774424L69.3747 0.65979L70.6102 0.481467L71.2216 0.397403L72.4291 0.270029L73.0405 0.213986L74.3168 0.132468L74.9715 0.0942554L76.4082 0.0484012L76.7827 0.0382112L77.5775 0.0229271L77.9825 0.0178321L78.8487 0.00764204L79.2919 0.00509502L80.2421 0.00254702L81.7757 0H82.3056L83.3016 0.00254702L83.7882 0.00509502L84.7053 0.0152841L85.6045 0.0254741L87.2094 0.0662333L87.9838 0.0917074L89.4053 0.165584L90.0982 0.208891L91.4127 0.323526L92.0648 0.389759L93.3564 0.555343L94.006 0.644504L95.3536 0.868681L96.0414 0.988411L97.524 1.27627L99.99 1.79086L101.139 2.04051L103.419 2.61368L104.555 2.91428L106.804 3.59445L107.925 3.946L110.142 4.72552L111.245 5.12802L113.423 6.00689L114.508 6.45779L116.645 7.43346L117.71 7.93276L119.804 9.00269L120.846 9.54784L122.897 10.712L123.913 11.3056L125.913 12.5564L126.904 13.1958L128.85 14.5358L129.816 15.2185L131.703 16.645L132.641 17.3711L134.47 18.8817L135.374 19.6485L137.139 21.2432L138.013 22.0507L139.712 23.7244L140.553 24.5702L142.181 26.3203L142.988 27.2068L144.542 29.0333L146.789 31.8559L147.329 32.5666L148.379 34.0339L148.896 34.7752L149.897 36.3012L150.394 37.0705L151.349 38.6474L151.82 39.4447L152.727 41.0725L153.621 42.7106L155.257 46.1165L156.047 47.8386L157.466 51.3821L158.146 53.1678L159.333 56.8132L159.898 58.6449L160.841 62.359L161.279 64.2187L161.967 67.9634L162.12 68.8983L162.38 70.7707L162.69 73.5729L162.716 73.8557L162.759 74.4798L162.78 74.8033L162.813 75.5039L162.843 76.2197L162.876 77.8297L162.887 78.6576L162.881 80.4205L162.874 81.3095L162.836 83.131L162.81 84.0404L162.736 85.8287L162.698 86.7101L162.594 88.3736L162.54 89.1811L162.41 90.6306L162.374 90.9745L162.301 91.6063L162.186 92.4572L161.913 94.2225L161.238 97.6514L160.879 99.3506L160.031 102.657L159.582 104.295L158.556 107.487L158.018 109.067L156.808 112.149L156.182 113.677L154.786 116.66L154.065 118.138L152.48 121.029L151.665 122.464L149.889 125.266L147.008 129.388L146.257 130.396L144.662 132.368L143.849 133.346L142.143 135.252L141.276 136.194L139.465 138.029L138.546 138.935L136.638 140.688L135.675 141.557L133.68 143.228L132.671 144.053L130.598 145.638L129.553 146.417L127.408 147.908L126.328 148.641L124.122 150.032L123.014 150.715L120.754 152.004L119.618 152.636L117.315 153.812L116.159 154.388L113.818 155.453L112.643 155.97L110.277 156.915L109.089 157.374L106.702 158.194L105.508 158.589L103.108 159.279L101.908 159.608L99.5085 160.163L95.914 160.838L95.2542 160.943L93.8506 161.134L93.1348 161.226L91.6445 161.391L90.1415 161.552L87.0285 161.783L86.2541 161.832L84.7231 161.908L83.964 161.941L82.4915 161.982L81.7655 161.997L80.3873 162L79.7122 161.997M110.908 150.776C112.746 150.062 114.027 148.375 114.221 146.413L114.477 143.834L114.549 143.123L114.712 141.531L114.798 140.716L114.982 138.989L115.17 137.246L115.56 133.767L115.654 132.931L115.835 131.377L115.878 131.005L115.962 130.302L116.003 129.961L116.08 129.332L116.115 129.028L116.184 128.483L116.217 128.221L116.276 127.772L116.304 127.561L116.35 127.222L116.406 126.848L116.414 126.799C116.437 126.664 116.253 126.6 116.187 126.72L116.161 126.766L116.092 126.919L116.054 127.003L115.957 127.232L115.906 127.355L115.787 127.655L115.723 127.816L115.58 128.18L115.433 128.562L115.081 129.502L114.895 129.999L114.477 131.133L114.261 131.721L113.792 133.01L113.555 133.67L113.051 135.071L112.544 136.492L111.484 139.486L110.959 140.981L109.956 143.87L109.714 144.57L109.26 145.892L109.041 146.537L108.644 147.716L108.453 148.285L108.121 149.278L107.969 149.747L107.724 150.516L107.668 150.692L107.576 150.992L107.533 151.135L107.467 151.364L107.439 151.469L107.401 151.624L107.379 151.752C107.378 151.759 107.378 151.765 107.378 151.772C107.378 151.816 107.402 151.856 107.441 151.877L107.477 151.897C107.495 151.907 107.516 151.913 107.537 151.915C107.548 151.917 107.559 151.917 107.57 151.915L107.701 151.902L107.785 151.889L108.014 151.831L108.142 151.795L108.47 151.688L108.646 151.629L109.087 151.469L109.324 151.382L109.894 151.168L110.195 151.054M59.9542 143.286L59.1875 143.151L57.6717 142.861L56.9202 142.713L55.4656 142.41L54.7498 142.257L53.4047 141.949L52.7526 141.796L51.5629 141.501L50.9923 141.353L50.009 141.078L49.7772 141.012L49.3594 140.884L49.1607 140.82L48.8091 140.703L48.6436 140.645L48.3659 140.538L48.2385 140.487L48.0398 140.393L47.9861 140.365C47.9625 140.353 47.9398 140.339 47.9182 140.324L47.8733 140.292C47.8486 140.274 47.8273 140.252 47.8104 140.227L47.7915 140.199C47.7757 140.176 47.7672 140.148 47.7672 140.12L47.7902 139.939L47.808 139.835L47.8615 139.534L47.8895 139.371L47.971 138.961L48.0169 138.744L48.1213 138.235L48.1799 137.97L48.3073 137.369L48.3761 137.058L48.5264 136.378L48.6053 136.029L48.7735 135.275L48.8601 134.893L49.0461 134.077L49.2371 133.249L49.6549 131.451L49.8714 130.536L50.3274 128.616L51.754 122.772L52.1794 121.068L53.0022 117.669L53.2009 116.839L53.578 115.252L53.7588 114.475L54.0925 113.038L54.2505 112.345L54.5282 111.12L54.5919 110.829L54.709 110.297L54.7651 110.04L54.8619 109.579L54.9103 109.359L54.9867 108.977L55.0224 108.799L55.0784 108.504L55.1039 108.369L55.1345 108.17L55.1548 107.981C55.1548 107.974 55.1592 107.966 55.1662 107.963L55.2058 107.943L55.2415 107.93L55.3637 107.905L55.4351 107.892L55.6312 107.867L55.7382 107.854L56.0108 107.828L56.156 107.816L56.505 107.79L56.691 107.778L57.1189 107.752L57.3431 107.739L57.8526 107.714L58.1175 107.701L58.7111 107.676L59.0193 107.663L59.6995 107.637L60.0485 107.625L60.8153 107.597L61.2101 107.584L62.0686 107.558L62.5068 107.543L63.4544 107.518L63.941 107.502L64.9829 107.474L65.5179 107.462L66.654 107.434L67.2374 107.418L68.4729 107.388L70.4395 107.344L72.103 107.306L75.3103 107.227L76.0898 107.207L77.5673 107.166L78.2908 107.148L79.6256 107.11L80.2752 107.092L81.4318 107.057L81.982 107.039L82.9221 107.008L83.1386 107.001L83.5309 106.985L83.7169 106.978L84.0378 106.965L84.1907 106.957L84.4378 106.947L84.7231 106.932C85.9613 106.852 87.0572 107.727 87.2548 108.951L87.2705 109.049L87.3368 109.464L87.4387 110.435L87.4845 110.941L87.5457 112.093L87.5686 112.692L87.5864 114.006L87.5915 114.684L87.5686 116.151L87.5533 116.903L87.4896 118.505L87.4514 119.32L87.3495 121.045L87.2909 121.918L87.1483 123.747L86.8859 126.593L86.7967 127.502L86.6184 129.5L86.5292 130.508L86.3713 132.518L86.3356 133.013L86.2669 133.958L86.2337 134.424L86.1777 135.293L86.1522 135.715L86.1089 136.477L86.0631 137.466L86.0427 137.97L86.0096 138.808L85.9917 139.2L85.9612 139.835L85.9433 140.13L85.9077 140.591L85.8898 140.805L85.8465 141.121L85.8236 141.266L85.7675 141.468L85.7528 141.516C85.744 141.545 85.7315 141.572 85.7155 141.598C85.6845 141.648 85.6413 141.689 85.59 141.718L85.4723 141.783C85.4028 141.822 85.3284 141.851 85.251 141.87L85.23 141.875L84.8836 141.944L84.7002 141.98L84.2722 142.053L83.8238 142.13L82.731 142.288L82.1578 142.367L80.8841 142.527L80.2345 142.606L78.8741 142.757L78.194 142.83L76.8438 142.963L76.1789 143.024L74.9307 143.128L74.3295 143.174L73.2799 143.238L73.0354 143.251L72.5972 143.269L72.0317 143.279H71.6954L71.2165 143.261L71.0051 143.248L70.73 143.197L70.677 143.182C70.6347 143.17 70.5954 143.149 70.5619 143.121C70.5169 143.083 70.484 143.032 70.467 142.976L70.4418 142.892C70.4302 142.853 70.4234 142.812 70.4217 142.772L70.4013 142.563L70.3911 142.446L70.3529 142.155L70.2077 141.157L70.1593 140.861L70.1313 140.382L70.1364 140.263L70.1746 140.005L70.2001 139.87L70.2918 139.562L70.3453 139.396L70.5007 139.002L70.5898 138.788L70.8217 138.271L70.949 137.993L71.2675 137.32L71.8585 136.095L72.1132 135.568L72.6278 134.444L72.8825 133.881L73.3564 132.781L73.5831 132.246L73.9601 131.298L74.0467 131.079L74.1894 130.687L74.3575 130.193L74.5409 129.612L74.9001 128.249L75.0759 127.558L75.3765 126.208L75.4427 125.885L75.5574 125.291L75.6109 125.006L75.6873 124.519L75.7204 124.293L75.751 123.951L75.7383 123.641C75.7383 123.639 75.7379 123.637 75.7373 123.635C75.7337 123.626 75.7227 123.622 75.7136 123.626L75.7 123.633C75.6866 123.641 75.6749 123.652 75.6657 123.665L75.6236 123.725L75.5625 123.816L75.3816 124.17L75.2822 124.372L75.0453 124.904L74.653 125.849L74.5868 126.022L74.4008 126.455L74.3015 126.687L74.062 127.225L73.9346 127.502L73.6493 128.121L73.5016 128.437L73.1781 129.115L72.8494 129.805L72.126 131.278L71.0229 133.458L70.6586 134.159L69.8918 135.657L69.5097 136.406L68.771 137.871L68.5926 138.225L68.2538 138.9L68.0882 139.231L67.7851 139.837L67.6399 140.133L67.3852 140.65L67.0693 141.305L66.1493 143.225C65.9109 143.722 65.402 144.033 64.8504 144.018H64.7893L64.5881 144L64.476 143.987L64.183 143.954L64.0276 143.934L63.6608 143.883L63.4697 143.857L63.0367 143.793L62.5934 143.727L61.5744 143.564L61.0522 143.478M42.7258 133.076C42.4172 132.922 42.1206 132.745 41.8387 132.546L41.3273 132.185L40.8662 131.833L40.0255 131.023L39.6281 130.608L38.9913 129.759L38.8512 129.551L38.627 129.146L38.3926 128.572C38.318 128.323 38.2629 128.068 38.2278 127.811L38.1557 127.281L38.1073 126.804L38.1099 125.788L38.1277 125.281L38.2551 124.303L38.5786 123.027L38.6448 122.851L38.8359 122.357L38.9403 122.089L39.19 121.47L39.9873 119.519L40.0561 119.356L40.2064 118.956L40.2828 118.744L40.4459 118.255L40.614 117.751L40.9732 116.536L41.1541 115.904L41.5183 114.523L42.0355 112.386L42.1119 112.05L42.2902 111.283L42.3794 110.885L42.5806 110.022L42.787 109.138L43.243 107.204L43.4748 106.231L43.9384 104.29L44.0505 103.814L44.2721 102.904L44.5804 101.628L44.7281 101.027L44.9956 99.9288L45.1255 99.3964L45.3599 98.4233L45.472 97.9495L45.6783 97.0859L45.7751 96.6681L45.9535 95.8988L46.0375 95.5268L46.1878 94.839L46.2591 94.5053L46.3865 93.8837L46.5088 93.2774L46.6948 92.1973L46.7763 91.6726L46.8986 90.6689L46.952 90.1645L47.0285 89.1175L47.0616 88.5774L47.1125 87.3699L47.1253 87.0515L47.1457 86.3688L47.1788 85.2504L47.2017 84.4709L47.2603 83.0341L47.2756 82.6902L47.3087 82.0559L47.3265 81.7502L47.3596 81.1974L47.3775 80.935L47.4157 80.4816L47.4335 80.2702L47.4692 79.9314L47.487 79.7785L47.5179 79.6C47.5211 79.5815 47.5258 79.5632 47.532 79.5455L47.56 79.4658C47.5688 79.4407 47.5863 79.4196 47.6093 79.4063C47.6177 79.4014 47.6268 79.3977 47.6363 79.3951L47.8029 79.3505L47.9073 79.3276L48.1901 79.2945L48.343 79.2792L48.7123 79.2614L48.9059 79.2537L49.3467 79.2486L49.8026 79.2461L50.8649 79.2741L51.4126 79.2945L52.5666 79.3633L53.1474 79.4015L54.2785 79.5008L54.8313 79.5543L55.8223 79.6792L56.0566 79.7123L56.477 79.7785L56.6782 79.8116L57.0247 79.8829L57.1852 79.9186L57.4399 79.9925L57.6907 80.0972C57.6984 80.1004 57.7058 80.1043 57.7129 80.1088C57.7294 80.1195 57.7436 80.1334 57.7545 80.1498L57.794 80.209C57.8109 80.2429 57.8239 80.2786 57.8327 80.3154L57.8577 80.4205L57.873 80.5122L57.8908 80.7669L57.8959 80.907L57.8933 81.279L57.8908 81.4827L57.8679 81.9897L57.8551 82.2623L57.8118 82.9297L57.7864 83.2838L57.7227 84.1295L57.6055 85.6198L57.5443 86.3509L57.4144 87.8208L57.3482 88.5468L57.2157 89.8919L57.1852 90.2129L57.1215 90.8039L57.0934 91.0917L57.0349 91.5987L57.0094 91.8381L56.961 92.2406L56.8973 92.7068L56.8413 93.0635L56.6655 93.8786L56.5636 94.3041L56.291 95.267L56.1407 95.7689L55.7688 96.8948L55.5675 97.4756L55.0912 98.7723L54.8364 99.4423L54.2505 100.92L53.9423 101.681L53.2443 103.353L52.8774 104.214L52.0622 106.089L50.6994 109.146L50.3707 109.872L49.7976 111.178L49.5224 111.81L49.0537 112.941L48.8295 113.489L48.455 114.47L48.2793 114.944L47.994 115.799L47.8615 116.212L47.6551 116.966L47.5609 117.33L47.4259 118.006L47.3673 118.337L47.2985 118.958L47.2577 119.855V120.097L47.1992 120.68L47.1584 120.989L47.0234 121.702L46.9444 122.076L46.7304 122.914L46.3254 124.31L46.1014 125.03C45.6377 126.52 45.5849 128.107 45.9484 129.624L46.0324 129.979L46.17 130.57L46.2337 130.85L46.3279 131.308L46.3712 131.525L46.4247 131.874L46.4477 132.039L46.4604 132.304L46.461 132.367C46.4623 132.489 46.4421 132.611 46.4013 132.726C46.3628 132.835 46.3066 132.936 46.235 133.027L45.984 133.344C45.8674 133.46 45.735 133.56 45.5905 133.639L45.4338 133.726C45.3041 133.778 45.166 133.806 45.0262 133.808L44.774 133.812L44.6492 133.802L44.3715 133.744L44.2263 133.708L43.9027 133.598L43.7346 133.537L43.3601 133.377L43.164 133.29M94.5766 112.009L94.1639 111.999L93.415 111.963L93.0558 111.945L92.4622 111.899L92.1922 111.874L91.8203 111.823L91.7439 111.81L91.6598 111.789C91.6497 111.786 91.64 111.782 91.6312 111.776L91.5942 111.753C91.5875 111.749 91.5834 111.742 91.5834 111.734L91.591 111.634L91.5961 111.573L91.6114 111.385L91.6216 111.278L91.6471 111.01L91.6598 110.868L91.6904 110.531L91.7235 110.18L91.805 109.319L91.9451 107.869L92.1056 106.226L92.3196 103.067L92.3629 102.26L92.4266 100.568L92.4546 99.7047L92.4852 97.8399L92.4903 97.3585L92.4954 96.3497V95.8351L92.4928 94.7524L92.4903 94.2022L92.4801 93.038L92.4724 92.4419L92.4546 91.1834L92.4444 90.5415L92.4164 89.1786L92.4036 88.4831L92.3706 87.0056L92.3527 86.2516L92.3094 84.6492L92.2406 82.0941L92.2101 81.0573L92.154 79.1467L92.1285 78.2195L92.0776 76.5152L92.0521 75.6898L92.0062 74.1818L91.9808 73.4506L91.9375 72.126L91.9171 71.484L91.8738 70.33L91.8534 69.7721L91.8152 68.7761L91.7948 68.2971L91.7566 67.4488L91.7362 67.0413L91.698 66.328L91.6776 65.9866L91.6394 65.3931L91.6216 65.1128L91.5808 64.6314L91.5604 64.4046L91.5197 64.0225L91.4993 63.8417L91.4535 63.5462L91.4331 63.4086L91.3847 63.187L91.3618 63.0851L91.356 63.0672C91.3259 62.9741 91.2864 62.8842 91.238 62.7992L91.1597 62.6615C91.1484 62.6417 91.1345 62.6235 91.1184 62.6073C91.099 62.588 91.0767 62.5719 91.0522 62.5596L90.9007 62.4839C90.8294 62.4533 90.756 62.4283 90.6809 62.409L90.6522 62.4017C90.5615 62.3784 90.4693 62.3618 90.3762 62.3521L89.4639 62.2571C88.6369 62.2492 87.8659 61.838 87.3986 61.1557L86.7432 60.1988L86.4605 59.7861L85.8847 59.0168L85.5918 58.6398L84.9804 57.9239L84.667 57.5724L83.992 56.8922L83.643 56.5534L82.8787 55.886L82.4839 55.5497L81.605 54.8695L81.1465 54.5256L80.1249 53.8149L79.5951 53.4506L78.4054 52.6813L76.4057 51.4432L75.9064 51.1401L74.9842 50.414L74.7728 50.2306L74.4085 49.8714L73.9881 49.367C73.6595 48.8951 73.9621 48.244 74.5347 48.191L75.0937 48.1392L76.5025 48.0093L79.4117 47.6832L80.879 47.5074L83.8697 47.0947L85.3701 46.8782L88.3965 46.3891L92.9259 45.5713L93.2825 45.5026L93.9092 45.3752L94.2123 45.3115L94.7499 45.1892L95.2721 45.0618L96.1866 44.7714L96.6452 44.611L97.631 44.1855L97.896 44.0658L98.4793 43.7856L99.4779 43.2914L99.9517 43.0545L100.803 42.6367L101.213 42.4354L101.952 42.0839L102.311 41.9157L102.96 41.6253L103.274 41.4852L103.854 41.2432L104.423 41.0114L105.439 40.6624L106.96 40.2421L107.141 40.1988L107.446 40.13L107.592 40.0969L107.844 40.0536C108.006 40.0298 108.171 40.0212 108.335 40.0279L108.529 40.0357C108.682 40.0527 108.833 40.0817 108.981 40.1226L109.321 40.2166L109.479 40.2676L109.851 40.3949L110.526 40.6369L110.669 40.6879L111.01 40.8203L111.189 40.8917L111.594 41.0598L112.011 41.233L112.969 41.6534L113.458 41.8724L114.472 42.3437L115.929 43.0468L116.683 43.4213L118.049 44.1753L118.709 44.5549L119.903 45.3293L120.479 45.7216L121.516 46.5292L122.015 46.9393L122.909 47.7978L123.337 48.2334L124.102 49.1531L124.468 49.6243L125.118 50.6229L125.431 51.1324L125.979 52.2227L126.705 53.9805L126.876 54.4518L127.232 55.486L127.411 56.0159L127.778 57.147L127.964 57.7227L128.338 58.9302L128.524 59.5416L128.901 60.8076L129.278 62.0865L130.014 64.7333L130.378 66.0579L131.059 68.6844L131.39 69.981L131.976 72.4317L132.116 73.0278L132.368 74.1563L132.49 74.7091L132.704 75.7408L132.806 76.2426L132.979 77.1572L133.061 77.5979L133.186 78.3774L133.242 78.7468L133.316 79.3709L133.362 80.1071V80.3262L133.323 80.8026L133.298 81.0471L133.201 81.5999L133.142 81.8878L132.977 82.5501L132.883 82.8966L132.638 83.7016L132.503 84.1219L132.167 85.0976L131.986 85.6096L131.548 86.7916L131.433 87.0999L131.181 87.7622L131.051 88.101L130.771 88.827L130.626 89.1964L130.315 89.9861L129.813 91.2522L129.637 91.6955L129.309 92.5158L129.151 92.9183L128.853 93.657L128.707 94.0162L128.44 94.6785L128.31 94.9995L128.068 95.5854L127.951 95.8707L127.737 96.3853L127.632 96.635L127.444 97.0808L127.258 97.5113L126.955 98.1864L126.815 98.4946L126.585 98.943L126.481 99.1417L126.318 99.3964L126.263 99.4715C126.249 99.491 126.232 99.5081 126.212 99.5223L126.189 99.5394C126.149 99.5684 126.099 99.579 126.052 99.5687L126.016 99.5611C126.004 99.5584 125.992 99.5517 125.984 99.542C125.979 99.5367 125.975 99.5306 125.973 99.524L125.926 99.4066L125.898 99.3327L125.834 99.1111L125.801 98.9914L125.727 98.6882L125.689 98.5277L125.607 98.1533L125.523 97.7661L125.34 96.8235L125.248 96.3344L125.059 95.2619L124.965 94.7193L124.784 93.6112L124.698 93.0609L124.545 92.0088L124.471 91.4993L124.361 90.6026L124.336 90.3912L124.298 90.0142L124.26 89.5276L124.252 89.3798L124.242 88.9799L124.239 88.7659L124.242 88.2539L124.244 87.9864L124.257 87.3801L124.265 87.0668L124.285 86.3891L124.31 85.6962L124.387 84.183L124.532 81.8852L124.593 81.0369L124.708 79.2435L124.761 78.3392L124.858 76.5025L124.904 75.5854L124.978 73.792L125.014 72.9106L125.067 71.2496L125.09 70.4446L125.118 69.0053L125.123 68.664L125.128 68.0348V67.7316V67.1916L125.126 66.9317L125.115 66.4859L125.11 66.277L125.093 65.9408L125.082 65.7854L125.064 65.6234C125.059 65.5854 125.052 65.5477 125.042 65.5107L125.01 65.3901C125.009 65.387 125.008 65.384 125.006 65.3814C124.996 65.3671 124.977 65.3639 124.963 65.3745L124.935 65.3962C124.931 65.3992 124.928 65.4026 124.925 65.4064L124.916 65.4179C124.905 65.4318 124.895 65.4473 124.889 65.4637L124.825 65.6172L124.787 65.7242L124.698 66.0223L124.649 66.1879L124.547 66.598L124.494 66.8145L124.379 67.3215L124.321 67.5864L124.196 68.18L124.132 68.4882L124.002 69.1556L123.936 69.497L123.801 70.2281L123.663 70.972L123.386 72.5972L123.246 73.4252L122.978 75.1472L122.846 76.0134L122.601 77.738L122.285 80.2269L122.191 81.0242L122.051 82.4559L121.99 83.1513L121.916 84.4531L121.888 85.095L121.89 86.3611L121.901 87.0005L121.985 88.3278L122.038 89.0079L122.211 90.4956L122.262 90.8828L122.38 91.7006L122.441 92.1184L122.583 93.01L122.657 93.4634L122.825 94.4391L122.912 94.9384L123.108 96.0109L123.207 96.5611L123.432 97.7406L123.798 99.6486L124.048 100.938L124.532 103.668L124.649 104.344L124.866 105.653L124.97 106.297L125.156 107.497L125.245 108.078L125.393 109.107L125.459 109.596L125.559 110.394L125.579 110.575L125.61 110.885L125.625 111.031L125.64 111.26L125.645 111.364V111.478C125.645 111.497 125.643 111.516 125.639 111.535L125.625 111.605C125.623 111.612 125.619 111.62 125.614 111.625C125.609 111.63 125.604 111.633 125.598 111.635L125.526 111.66L125.477 111.675L125.327 111.703L125.161 111.731L124.639 111.785L124.349 111.81L123.6 111.856L123.197 111.881L122.242 111.925L121.74 111.945L120.604 111.983L120.013 112.001L118.721 112.034L118.056 112.05L116.632 112.078L115.906 112.09L114.373 112.111L113.596 112.121L111.981 112.136L111.166 112.144L109.492 112.152L107.808 112.159L104.369 112.152L102.655 112.141L99.2996 112.103L98.4768 112.093L96.877 112.062L96.0873 112.047M55.6643 105.518C55.6643 105.503 55.6658 105.487 55.6686 105.472L55.6923 105.347L55.7127 105.256L55.7764 104.98L55.8121 104.828L55.9063 104.443L55.9573 104.237L56.077 103.755L56.1407 103.503L56.2859 102.942L56.3598 102.652L56.5228 102.025L57.068 99.9721L57.2438 99.3149L57.6055 97.8909L57.7889 97.1623L58.1532 95.6287L58.5175 94.0773L59.218 90.8242L59.3887 90.0116L59.7122 88.4067L59.8676 87.6094L60.158 86.0631L60.3007 85.3014L60.5503 83.857L60.8688 81.8521L60.8968 81.6636L60.9477 81.1923L60.9732 80.9401L61.0191 80.3542L61.042 80.0511L61.0853 79.376L61.1057 79.027L61.1413 78.2806L61.1745 77.5215L61.228 75.8758L61.2483 75.0479L61.2764 73.387L61.2866 72.5718L61.284 71.0611L61.2815 70.6994L61.2738 70.0345L61.2662 69.711L61.2509 69.1404L61.2407 68.8678L61.2152 68.4092L61.2025 68.1953L61.1694 67.8717L61.1515 67.7291L61.1167 67.5852C61.1129 67.5695 61.1039 67.5555 61.0912 67.5455L61.0812 67.5377C61.0576 67.5191 61.0236 67.5216 61.003 67.5435C60.9985 67.5483 60.9948 67.5538 60.9921 67.5599L60.8968 67.7749L60.8458 67.9048L60.7312 68.287L60.6726 68.4958L60.5503 69.013L60.4867 69.2856L60.3593 69.9199L60.293 70.2485L60.1631 70.9771L60.0969 71.3515L59.9695 72.1514L59.6154 74.7295L59.5619 75.1651L59.46 75.965L59.4091 76.3471L59.3174 76.9916L59.2741 77.2871L59.2027 77.7023L59.1875 77.7889L59.162 77.9061L59.1365 77.9848C59.1348 77.99 59.1317 77.9946 59.1275 77.9981C59.1218 78.0028 59.1145 78.0052 59.1072 78.0047L58.9658 77.9953L58.8716 77.9851L58.5863 77.9291L58.4309 77.8985L58.0487 77.8068L57.4119 77.6386L57.096 77.552L56.4184 77.4196L56.0617 77.361L55.2083 77.2795L54.9765 77.2616L54.4594 77.2361L54.1919 77.2234L53.5856 77.2056L53.2697 77.1954L52.5615 77.1877L51.3642 77.1801C48.9431 77.1759 47.0067 75.1673 47.0911 72.7477L47.11 72.2049L47.1278 71.67L47.166 70.6739L47.1864 70.1873L47.2272 69.2881L47.2501 68.8474L47.2934 68.0373L47.3189 67.6399L47.3698 66.9113L47.3953 66.5547L47.4539 65.9L47.4845 65.5816L47.5507 64.9957L47.6195 64.4225L47.7851 63.457L47.8742 62.9984L48.0908 62.2138L48.2079 61.8419L48.4856 61.1872L48.6334 60.8713L48.9824 60.2905L49.5963 59.4473L49.7568 59.2461L50.1644 58.8181L50.3835 58.599L50.8955 58.1379L51.1604 57.9035L51.7616 57.4221L52.0699 57.1801L52.7399 56.691L53.4251 56.2018L54.9383 55.2466L57.2947 53.9448L57.6845 53.7512L58.4003 53.3895L58.7416 53.2162L59.3148 52.9258L59.5798 52.7908L59.9491 52.5972L60.0256 52.559L60.13 52.503L60.201 52.4613C60.2029 52.4602 60.2047 52.4589 60.2062 52.4573C60.2112 52.4523 60.214 52.4455 60.2138 52.4384L60.2115 52.3501L60.209 52.289L60.1784 52.1081L60.0077 51.3642L59.9584 51.1808C59.8417 50.7461 59.3562 50.5272 58.9531 50.7274C58.8243 50.7918 58.6894 50.843 58.5504 50.8804L58.3519 50.9337C58.2147 50.9608 58.0751 50.9745 57.9352 50.9745H57.7227C57.582 50.9677 57.4423 50.948 57.3052 50.9155L57.0807 50.8624C56.9383 50.8217 56.7992 50.7699 56.6648 50.7076L56.4438 50.6051L56.235 50.4956L55.8299 50.2102L55.6287 50.0574L55.2516 49.688L55.0682 49.4919L54.7294 49.0461L54.2811 48.292L54.0543 47.8462L53.6773 46.8833L53.499 46.384L53.206 45.2784L53.071 44.7027L52.8545 43.4035L52.6048 41.1846L52.5361 40.3949L52.345 38.8231L52.2966 38.4614L52.2023 37.8449L52.0724 37.18L52.0164 36.9584L51.9374 36.4718L51.9043 36.2222L51.8661 35.6898L51.8381 35.1523L51.8966 34.0212L51.9451 33.4608L52.1489 32.401L52.2074 32.1488L52.3501 31.6826L52.5997 31.0636L52.7169 30.8216L53.0099 30.3325L53.1653 30.0879L53.5296 29.5988L53.9091 29.1123L54.8339 28.1799L55.3179 27.7264L56.3904 26.9189L58.0793 25.9305L58.4869 25.7369L59.1518 25.4567L59.4728 25.3293L60.0689 25.1586L60.3695 25.0822L61.0293 24.9854L62.2469 24.8835L62.7259 24.858L63.6302 24.8682L64.0735 24.886L64.9116 24.9905L65.3217 25.0516L66.0987 25.2478L66.4808 25.3573L67.1992 25.6477L67.5507 25.8057L68.2182 26.1903L68.5442 26.3967L69.1633 26.8832L69.4664 27.138L70.0421 27.7264L70.8599 28.7225L71.2649 29.2753L71.889 30.386C72.0773 30.7608 72.2371 31.1492 72.3672 31.5479L72.559 32.1361L72.6431 32.4418L72.7705 33.0837L72.8265 33.4073L72.9004 34.0925L72.9335 34.4441L72.959 35.1854L72.9462 36.3725L72.936 36.6858L72.9131 37.2157L72.9004 37.4654L72.8673 37.8908L72.8316 38.2984L72.6966 38.9531L72.6125 39.2766L72.3246 39.9797L72.2406 40.1707L72.0292 40.6089L71.6419 41.391L71.4713 41.7298L71.191 42.3259L71.0586 42.6112L70.8522 43.1232L70.7554 43.3729L70.6179 43.8365L70.5567 44.0658L70.4854 44.5116L70.4574 44.7358L70.4472 45.1943L70.4497 45.4287L70.4981 45.9331L70.5312 46.1929L70.6332 46.7737L70.842 47.7672L70.9134 48.0755L71.084 48.6461L71.1758 48.9238L71.3999 49.446L71.5197 49.7008L71.8126 50.1899L71.9655 50.4293L72.3374 50.9006L72.5335 51.135L72.9972 51.6037L73.2417 51.8406L73.8098 52.3221L74.1104 52.5666L74.8008 53.0812L75.9828 53.9015L76.719 54.3932L78.0742 55.407L78.734 55.9191L79.9441 56.9712L80.5274 57.5036L81.5872 58.6016L82.0992 59.1543L83.0112 60.2931L83.4494 60.8688L84.2162 62.0533L84.5804 62.6494L85.1995 63.8799L85.4924 64.5014L85.9663 65.7777L86.5191 67.7469L86.5853 68.0398L86.6846 68.7735L86.7305 69.1633L86.7891 70.0702L86.8146 70.5415L86.8375 71.5935L86.8426 72.1336L86.8273 73.3054L86.8146 73.9041L86.7611 75.1676L86.7279 75.807L86.6388 77.1368L86.2286 81.2484L86.1675 81.7299L86.0631 82.6291L86.0147 83.0698L85.9306 83.9079L85.8516 84.7384L85.7446 86.3688L85.7191 86.7865L85.6835 87.6527L85.6682 88.0959L85.6453 89.041L85.6351 89.525L85.6223 90.5822L85.6122 92.3298V92.7119V93.4201V93.764L85.6147 94.4009L85.6173 95.0199L85.6325 96.0847L85.6427 96.5917L85.6809 97.4833L85.7013 97.9164L85.7625 98.7035L85.8338 99.4805L86.0783 101.019L86.1497 101.427L86.328 102.321L86.6515 103.857C86.7289 104.218 86.4542 104.558 86.0853 104.558L82.7616 104.563H82.3361L81.3656 104.573L80.8586 104.578L79.7454 104.598L79.1722 104.611L77.9418 104.639L77.3151 104.657L75.9955 104.695L74.6581 104.736L71.8355 104.835L70.4166 104.889L67.5915 105.006L66.8935 105.036L65.5383 105.1L64.8683 105.131L63.5844 105.194L62.9551 105.228L61.7731 105.291L61.1974 105.322L60.1402 105.385L59.6333 105.416L58.7315 105.477L58.3035 105.508L57.5851 105.564L57.2488 105.592L56.7394 105.645L56.2375 105.719L56.22 105.723C56.1137 105.746 56.0041 105.749 55.8964 105.733C55.8437 105.726 55.7917 105.713 55.7412 105.696L55.7178 105.689M44.4556 55.3459L44.2543 55.2211L43.7703 54.923L43.5181 54.7651L42.9475 54.4059L42.652 54.2225L42.0151 53.82L41.689 53.6162L41.0063 53.1831L40.3159 52.745L38.8817 51.8304L36.8259 50.5108L36.4362 50.2587L35.7229 49.8052L35.3764 49.5861L34.7498 49.1989L34.4492 49.0129L33.9117 48.6894L33.6544 48.5366L33.206 48.2818L32.9946 48.1621L32.6354 47.9736L32.4673 47.8895L32.1998 47.7672L32.0775 47.7137L31.9547 47.6769C31.9178 47.6658 31.8797 47.6594 31.8412 47.6576C31.7687 47.6543 31.6965 47.6679 31.6302 47.6972L31.3566 47.8182L30.6738 48.0908L30.3427 48.2156L29.7364 48.4041L29.4434 48.4907L28.8983 48.5977L28.6333 48.6436L28.134 48.6716L27.8869 48.6767L27.4157 48.6257L27.1813 48.5901L26.7202 48.4576L26.4884 48.3812L26.0222 48.1697L25.2962 47.7647L25.0211 47.594L24.6033 47.3596C24.4761 47.2935 24.3439 47.2375 24.2079 47.1922L24.0989 47.1559C23.9991 47.1288 23.8962 47.1151 23.7928 47.1151H23.7827C23.7016 47.1151 23.6206 47.123 23.541 47.1388L23.1716 47.2119C22.9481 47.2729 22.7187 47.3098 22.4873 47.3221L22.1628 47.3393C21.9409 47.3342 21.72 47.3071 21.5034 47.2585L21.182 47.1864C20.9702 47.1254 20.7645 47.0449 20.5675 46.946L20.265 46.7941C20.0734 46.6839 19.8916 46.5577 19.7214 46.4167L19.4574 46.198C19.293 46.0454 19.1412 45.8797 19.0036 45.7025L18.7951 45.4338C18.6663 45.2473 18.554 45.05 18.4595 44.844L18.3187 44.5371L18.3165 44.5314C18.2349 44.3251 18.1732 44.1114 18.132 43.8934C18.0885 43.6625 18.0682 43.4277 18.0717 43.1927L18.0818 42.4966L18.1073 42.3259L18.2092 41.954L18.2703 41.768C18.3789 41.5085 18.5058 41.2571 18.6502 41.0157L19.1008 40.2625C19.4932 39.7483 19.2079 39.0009 18.5726 38.879L15.2159 38.2347L14.8949 38.171L14.3039 38.0564L14.0161 37.9978L13.4913 37.8908L12.9818 37.7863L12.1462 37.5953L11.7565 37.501L11.1349 37.3227L10.847 37.231L10.4114 37.0501C10.2792 36.9874 10.1525 36.9136 10.0328 36.8294L9.92996 36.7572C9.8471 36.6878 9.77375 36.6079 9.7118 36.5194L9.64465 36.4234C9.599 36.3423 9.56452 36.2554 9.54213 36.165L9.53355 36.1304C9.51594 36.0592 9.50438 35.9868 9.49899 35.9137L9.47142 35.5395C9.47142 35.3975 9.4914 35.2563 9.53076 35.1199L9.54973 35.0542C9.59248 34.9061 9.65224 34.7634 9.72782 34.6291L9.91148 34.3026C9.94239 34.2476 9.97923 34.1962 10.0214 34.1493C10.0538 34.1132 10.0892 34.0799 10.1272 34.0498L10.279 33.9295C10.3532 33.8823 10.4346 33.8474 10.52 33.8262L10.6891 33.7843C10.8044 33.7673 10.9209 33.7591 11.0374 33.7597L11.3667 33.7614L11.5119 33.7665L11.8584 33.7843L12.4851 33.8301L12.6252 33.8403L13.0226 33.8862L13.2365 33.9117L13.769 33.9881L14.0492 34.0288L14.6911 34.1307L15.0249 34.1842L15.7585 34.3065L16.5075 34.4339L18.1811 34.737L20.7643 35.2363L21.154 35.3153L21.8622 35.458L22.2061 35.5267L22.8277 35.6541L23.1308 35.7153L23.676 35.8273L23.9409 35.8834L24.4173 35.9853L24.8809 36.0872L25.6401 36.2681L25.9993 36.3572L26.603 36.533L27.1838 36.7113L28.1901 37.1469L28.4525 37.2692L29.0307 37.5596L30.0446 38.0895L30.4955 38.3264L31.4686 38.8104L31.9654 39.0524L33.0302 39.5441L33.5754 39.7912L34.7319 40.293L35.3204 40.5427L36.5686 41.0547L37.203 41.3095L38.5404 41.8291L39.218 42.089L40.6446 42.6163L41.368 42.8812L42.8838 43.4162L45.2555 44.2288L47.9533 45.1334C49.2234 45.5593 50.1726 46.6267 50.4472 47.9379L50.5083 48.2309L50.679 48.883L50.7681 49.2167L50.977 49.8918L51.084 50.2255L51.3082 50.842L51.6292 51.6139L51.7311 51.8279L51.9094 52.2227L51.9935 52.4112L52.1285 52.7271L52.1896 52.8723L52.2635 53.0761L52.2648 53.0819C52.2823 53.1609 52.2481 53.2423 52.1794 53.285L51.9068 53.471L51.7642 53.5703L51.4483 53.7996L51.1248 54.0391L50.4242 54.5919L50.0778 54.8721L49.4307 55.4249L49.2804 55.5599L49.0104 55.807L48.6716 56.1356L48.5315 56.2783L48.2691 56.5381L48.1417 56.6629L47.9175 56.8667L47.8156 56.9584L47.6834 57.063C47.6663 57.0765 47.6482 57.0887 47.6293 57.0996L47.53 57.157C47.5269 57.1587 47.5233 57.1597 47.5197 57.1597C47.5166 57.1597 47.5136 57.159 47.5108 57.1576L47.4361 57.1215L47.3877 57.096L47.2399 57.0119L47.1558 56.9661L46.9444 56.8438L46.8323 56.7776L46.5648 56.6222L46.2872 56.4566L45.6045 56.0465L45.2478 55.8299M86.7356 42.8863L86.5343 42.7691L86.1649 42.4864L85.9866 42.3386L85.6657 41.9896L85.5077 41.8037L85.2275 41.3782L85.0899 41.1541L84.8479 40.6446L84.7307 40.3771L84.5193 39.7733L84.42 39.46L84.2416 38.7569L84.1576 38.3926L84.0073 37.58L83.8086 36.2349C83.7216 35.5418 83.1508 35.0104 82.4533 34.973L82.2342 34.9612L81.9693 34.9459L81.5388 34.9103L81.3375 34.8848L81.0267 34.8058C80.9323 34.7721 80.8442 34.7228 80.7661 34.6599L80.6879 34.5969C80.6309 34.5365 80.5874 34.4645 80.5604 34.3859L80.5096 34.2377C80.4876 34.1362 80.4775 34.0324 80.4794 33.9285L80.4841 33.6722L80.4994 33.4455L80.5988 32.8545L80.6574 32.5309L80.8408 31.7285L81.2 30.2484L81.3706 29.5555L81.6407 28.3557L81.763 27.7774L81.9438 26.7482L82.0228 26.2464L82.1298 25.3064L82.2164 23.9104L82.2266 23.6251L82.247 23.1308L82.2572 22.8965L82.2877 22.4914L82.3183 22.1017L82.4227 21.4903L82.4864 21.1948L82.6851 20.6369L83.1284 19.6612L83.2761 19.3581L83.6175 18.7849L83.7958 18.5021L84.1932 17.9723C84.4663 17.6246 84.7653 17.2982 85.0879 16.996L85.5765 16.538C85.914 16.248 86.2719 15.9825 86.6474 15.7437L87.2247 15.3764L87.8132 15.0376L89.092 14.5052L89.7467 14.2657L91.1299 13.9447L91.8305 13.8097L93.2876 13.7078L94.0213 13.6875L95.5166 13.8174L97.7686 14.2912L98.2755 14.4389L99.2461 14.8364L99.7225 15.0529L100.632 15.5853L101.078 15.8681L101.926 16.5355L103.128 17.6844L103.437 18.0181L103.982 18.6957L104.244 19.0396L104.698 19.7427L104.914 20.0968L105.278 20.833L105.449 21.205L105.727 21.9769L105.854 22.3692L106.045 23.1843L106.132 23.5996L106.241 24.4683L106.285 24.909L106.313 25.8362L106.267 27.2985L106.246 27.6067L106.196 28.3404L106.168 28.72L106.111 29.5275L106.081 29.93L106.025 30.7095L105.951 31.7438L105.913 32.266L105.926 33.2595L105.946 33.7512L106.086 34.7167L106.173 35.2007L106.448 36.1814L107.023 37.7252C107.035 37.7537 107.03 37.7859 107.012 37.8102L106.963 37.8739C106.956 37.8834 106.948 37.8924 106.939 37.9007L106.926 37.9129C106.901 37.9371 106.873 37.9584 106.843 37.9763L106.644 38.0946L106.504 38.171L106.124 38.334L105.416 38.5913L105.121 38.6881L104.448 38.9301L104.099 39.0575L103.34 39.3479L102.568 39.6485L100.917 40.3414L100.094 40.6904L98.543 41.3961L98.1762 41.5667L97.5037 41.8928L96.6248 42.3437L96.4286 42.4482L96.1 42.6214L95.9446 42.7004L95.6822 42.8303L95.4351 42.9475L95.0836 43.0621L95.053 43.0694C94.967 43.0899 94.8782 43.0963 94.79 43.0883C94.7094 43.0811 94.6302 43.0619 94.5551 43.0314L94.2735 42.9169C94.182 42.8677 94.0863 42.8268 93.9875 42.7945L93.871 42.7564C93.7796 42.7327 93.6858 42.7197 93.5914 42.7175L93.3997 42.7131L93.2163 42.7182L92.7221 42.7921L92.5845 42.815L92.2661 42.8787L91.7082 42.9959L91.3923 43.0672L90.8115 43.1767L90.5287 43.2302L90.0167 43.3041L89.5174 43.3703L88.6844 43.3907C88.4216 43.3839 88.1598 43.3554 87.9018 43.3053L87.6195 43.2506C87.4078 43.1947 87.2022 43.1176 87.006 43.0203L86.7356 42.8863Z"/></svg>