<svg xmlns="http://www.w3.org/2000/svg" version="1.1" xmlns:xlink="http://www.w3.org/1999/xlink" xmlns:svgjs="http://svgjs.dev/svgjs" width="1000" height="1000"><g clip-path="url(#SvgjsClipPath1090)"><rect width="1000" height="1000" fill="#000000"></rect><g transform="matrix(15.517241379310345,0,0,15.517241379310345,50,50)"><svg xmlns="http://www.w3.org/2000/svg" version="1.1" xmlns:xlink="http://www.w3.org/1999/xlink" xmlns:svgjs="http://svgjs.dev/svgjs" width="58" height="58"><svg width="58" height="58" viewBox="0 0 58 58" fill="none" xmlns="http://www.w3.org/2000/svg">
<mask id="mask0_24_1366" style="mask-type:alpha" maskUnits="userSpaceOnUse" x="0" y="0" width="58" height="58">
<circle cx="29" cy="29" r="29" fill="#D9D9D9"></circle>
</mask>
<g mask="url(#mask0_24_1366)">
<circle cx="29" cy="29" r="28" stroke="white" stroke-width="2"></circle>
<g clip-path="url(#clip0_24_1366)">
<path d="M31.7371 29.41C32.9964 33.3391 32.4431 41.3719 31.9661 45.4275C32.4643 47.4978 33.9738 50.509 34.86 52.4137L34.2239 60.4005L31.4106 60.2142C31.4106 59.8761 31.54 57.4791 31.5442 57.2237L30.022 50.6355C28.3832 47.8475 27.5055 45.9865 27.0964 42.6463C26.8462 43.2145 25.8244 45.6529 25.5933 46.1613L23.3778 45.7771C22.5425 46.9273 22.3941 52.3792 22.2733 53.8077L18.6968 60.4005L15.7415 59.2504C17.1937 56.4899 18.7371 50.2789 18.542 47.0952C19.019 45.9128 19.2077 42.1149 19.2883 40.737C19.5618 39.8744 19.6084 39.5569 19.2353 38.7564C19.0603 37.6611 19.1132 36.5372 19.39 35.4669C19.5596 34.1649 20.1766 28.5658 20.2889 27.158C20.5412 24.9358 20.431 20.5168 19.9052 18.3476C20.5412 15.4353 20.431 16.1507 22.816 14.897C21.968 14.8096 21.9468 14.0068 21.5758 13.3443L20.9695 13.0452C21.0433 12.5073 21.0865 11.9649 21.0988 11.4212C20.4628 11.0646 20.573 9.92594 20.6366 9.28644C21.0945 7.1517 23.4923 5.87269 25.3516 6.71923C26.7996 7.61177 27.1812 8.32948 27.319 10.1077C26.9861 11.2348 26.2081 12.8336 27.319 13.7468L28.8857 15.0143C28.8857 15.0143 30.3125 15.5595 30.427 15.7252C30.5414 15.8908 31.9301 17.4826 31.9301 17.4826C32.6276 18.3591 32.4473 21.6233 32.4728 22.5848" stroke="white" stroke-width="1.5" stroke-miterlimit="10" stroke-linecap="round" stroke-linejoin="round"></path>
<path d="M19.5576 39.4051L20.1724 40.0745C20.3442 39.6398 20.8445 40.2402 21.0607 40.3253C21.2144 40.0581 21.4445 39.8529 21.7158 39.741C21.4657 39.1866 21.3596 38.3608 20.9441 37.9007C20.9141 37.6508 20.9367 37.3968 21.0101 37.1578C21.0835 36.9187 21.206 36.7008 21.3681 36.5205C21.4042 36.1547 21.5187 35.2553 21.2134 34.9723L21.5992 34.7216C21.578 34.4202 21.7243 33.7877 21.33 33.7163L23.3737 28.5727C23.6769 26.2402 24.2471 20.8941 24.1433 18.5776" stroke="white" stroke-width="1.5" stroke-miterlimit="10" stroke-linecap="round" stroke-linejoin="round"></path>
<path d="M20.4946 22.4376C21.7667 21.8787 22.7906 22.0213 24.0669 22.3824" stroke="white" stroke-width="1.5" stroke-miterlimit="10" stroke-linecap="round" stroke-linejoin="round"></path>
<path d="M22.7312 30.581C24.2343 29.6608 26.5473 29.4653 28.2285 29.6332C28.9895 29.6332 31.2665 29.5274 31.93 29.9944" stroke="white" stroke-width="1.5" stroke-miterlimit="10" stroke-linecap="round" stroke-linejoin="round"></path>
<path d="M32.3414 33.0332C30.709 33.4726 28.4342 32.8929 26.7912 33.3138C25.7311 33.1505 23.1405 33.4818 22.0614 33.6474C21.3299 33.7164 21.5992 33.8774 21.5992 33.8774" stroke="white" stroke-width="1.5" stroke-miterlimit="10" stroke-linecap="round" stroke-linejoin="round"></path>
<path d="M22.816 14.9016C22.7948 14.9684 20.4118 15.9828 20.4839 16.1231C19.5235 15.3962 16.6255 11.925 15.2559 12.3551C14.7365 12.3137 14.0305 12.5024 13.5408 12.6381C12.873 12.316 11.7748 11.8767 12.008 10.8507C12.22 10.646 12.5868 10.2917 12.644 9.96046L10.736 9.80404L10.6597 9.35547L14.0517 9.42678C15.3683 10.3009 19.5299 12.3344 20.9948 13.0499C22.2075 13.3903 21.5609 14.7176 22.816 14.9016Z" stroke="white" stroke-width="1.5" stroke-miterlimit="10" stroke-linecap="round" stroke-linejoin="round"></path>
<path d="M31.5484 57.2237C31.1859 59.2687 30.092 59.9979 30.5223 61.9486C29.8863 62.9424 29.3182 62.5743 28.0546 62.3443C25.2392 61.8497 24.9572 61.8842 23.2739 60.4005C23.4054 59.9404 23.946 59.0432 24.3806 58.8822L25.3007 55.4869C25.112 54.5483 25.182 54.2309 25.7374 53.4787L25.9685 51.7235C26.1614 50.1868 26.0554 46.9893 25.9007 45.4389L27.0964 42.6462C27.5204 46.0025 28.3832 47.8359 30.0262 50.6354L31.5484 57.2237Z" stroke="white" stroke-width="1.5" stroke-miterlimit="10" stroke-linecap="round" stroke-linejoin="round"></path>
<path d="M47.4848 61.1135L47.1752 61.7599L41.4893 62.0751L40.3911 60.9663C40.8724 59.126 39.0364 56.966 38.2711 55.4868C38.1015 55.1257 35.7885 48.6133 35.3815 48.4822L34.3596 51.0333L34.2875 51.1828C33.6176 49.8348 32.2904 46.8973 31.9682 45.4319C32.4431 41.3465 32.9964 33.3619 31.7371 29.4145L32.0318 28.9958C31.1244 27.6294 32.3371 24.0132 32.4728 22.5916C32.4728 22.5916 32.4325 19.3297 32.4728 19.1204C32.335 17.7401 31.2665 16.728 30.4291 15.7319C29.6001 15.2718 28.4447 14.8463 27.8447 14.1746C28.4935 14.0826 30.2043 13.6156 30.622 13.0566C31.735 12.799 35.8521 11.8351 37.0202 11.8857L40.1812 14.1746C41.3282 16.5693 41.3727 19.217 40.7982 22.0073C40.7982 22.0073 39.9501 25.0622 40.336 25.9386C40.7218 26.8151 42.7083 40.8335 43.4588 45.8874C43.9888 48.611 44.451 55.0314 46.5604 57.1592C46.5371 57.9344 46.1979 59.0386 47.0226 59.8368L47.2346 60.7777L47.4848 61.1135Z" stroke="white" stroke-width="1.5" stroke-miterlimit="10" stroke-linecap="round" stroke-linejoin="round"></path>
<path d="M36.5326 11.8489L31.8367 12.7691C32.6423 12.608 35.7057 11.7454 36.5326 11.8489Z" stroke="white" stroke-width="1.5" stroke-miterlimit="10" stroke-linecap="round" stroke-linejoin="round"></path>
<path d="M36.5368 11.8489C36.5008 11.8489 31.8409 12.7691 31.8113 12.7691C31.0269 12.8519 30.1852 13.4339 29.6425 12.4631C29.5704 10.6091 29.0743 12.2193 28.8093 11.2785C28.8665 11.0254 28.9577 10.2709 29.1294 10.08L28.7436 9.80162C28.3598 9.53478 28.4998 8.07865 28.4807 7.68069C28.7817 7.23902 28.9535 6.62482 29.2333 6.14864C29.899 4.72702 31.7413 4.57059 33.0091 4.90645C33.7108 5.11118 34.4338 6.12564 34.8344 6.73294C36.1128 9.17592 34.6712 10.2318 36.5368 11.8489Z" stroke="white" stroke-width="1.5" stroke-miterlimit="10" stroke-linecap="round" stroke-linejoin="round"></path>
<path d="M32.3965 33.8013C33.2254 33.8979 35.2925 34.121 36.0981 34.0106C36.7235 34.5926 38.746 34.588 39.5283 34.68C39.9523 34.7214 41.5678 34.8387 41.8413 34.6363" stroke="white" stroke-width="1.5" stroke-miterlimit="10" stroke-linecap="round" stroke-linejoin="round"></path>
<path d="M18.9534 44.9397L23.3736 45.777" stroke="white" stroke-width="1.5" stroke-miterlimit="10" stroke-linecap="round" stroke-linejoin="round"></path>
<path d="M27.7664 45.8876L31.9683 45.4275" stroke="white" stroke-width="1.5" stroke-miterlimit="10" stroke-linecap="round" stroke-linejoin="round"></path>
</g>
</g>
<defs>
<clipPath id="clip0_24_1366">
<rect width="40.0687" height="52.9084" fill="white" transform="translate(9.07617 4.64893)"></rect>
</clipPath>
<clipPath id="SvgjsClipPath1090"><rect width="1000" height="1000" x="0" y="0" rx="500" ry="500"></rect></clipPath></defs>
</svg></svg></g></g></svg>